<?xml version="1.0" standalone="no"?>
<!DOCTYPE svg PUBLIC "-//W3C//DTD SVG 20010904//EN"
 "http://www.w3.org/TR/2001/REC-SVG-20010904/DTD/svg10.dtd">
<svg version="1.0" xmlns="http://www.w3.org/2000/svg"
 width="160.000000pt" height="160.000000pt" viewBox="0 0 160.000000 160.000000"
 preserveAspectRatio="xMidYMid meet">
<metadata>
Created by potrace 1.14, written by Peter Selinger 2001-2017
</metadata>
<g transform="translate(0.000000,160.000000) scale(0.100000,-0.100000)"
fill="#000000" stroke="none">
<path d="M332 1286 l-72 -74 0 -446 0 -447 25 -24 24 -25 491 0 491 0 24 25
25 24 0 448 0 447 -74 73 -75 73 -394 0 -394 0 -71 -74z m836 46 c9 -7 12 -89
10 -378 l-3 -369 -370 -3 c-339 -2 -371 -1 -382 15 -17 22 -19 694 -3 724 10
18 25 19 373 19 199 0 368 -4 375 -8z m-830 -887 l-46 -100 -1 428 -1 428 43
39 42 39 5 -367 5 -367 -47 -100z m960 766 c9 -11 12 -113 11 -440 l-1 -426
-50 105 c-27 57 -49 111 -48 120 2 8 4 172 7 364 l4 349 32 -29 c17 -16 38
-35 45 -43z m-69 -777 c28 -63 49 -119 46 -125 -8 -12 -942 -12 -949 0 -3 5
17 61 46 125 l51 116 377 0 377 0 52 -116z"/>
<path d="M792 870 c-1 -32 -6 -78 -11 -102 -11 -48 -4 -58 43 -58 l29 0 -7 57
c-8 68 -34 163 -45 163 -4 0 -8 -27 -9 -60z"/>
</g>
</svg>
